 <svg  version="1.0" xmlns="http://www.w3.org/2000/svg"  width="300.000000pt" height="295.000000pt" viewBox="0 0 300.000000 295.000000"  preserveAspectRatio="xMidYMid meet">  <g transform="translate(0.000000,295.000000) scale(0.100000,-0.100000)" fill="#000000" stroke="none"> <path d="M1443 2943 c31 -2 83 -2 115 0 31 2 5 3 -58 3 -63 0 -89 -1 -57 -3z"/> <path d="M1195 2920 c-27 -7 -27 -8 -5 -8 14 0 39 4 55 8 27 7 27 8 5 8 -14 0 -38 -4 -55 -8z"/> <path d="M1755 2920 c17 -4 41 -8 55 -8 22 0 22 1 -5 8 -16 4 -41 8 -55 8 -22 0 -22 -1 5 -8z"/> <path d="M1105 2900 c-25 -11 1 -11 35 0 20 6 21 8 5 8 -11 0 -29 -3 -40 -8z"/> <path d="M1860 2900 c34 -11 60 -11 35 0 -11 5 -29 8 -40 8 -16 0 -15 -2 5 -8z"/> <path d="M810 2785 c-25 -13 -41 -24 -37 -25 11 0 87 39 87 45 0 7 0 7 -50 -20z"/> <path d="M1283 2803 c-35 -5 -61 -27 -43 -38 5 -3 10 1 10 9 0 9 5 16 10 16 14 0 13 -16 -2 -32 -15 -15 -22 -78 -9 -78 5 0 11 13 14 29 4 16 14 31 24 34 15 4 15 5 1 6 -23 1 -11 41 13 41 11 0 19 5 19 10 0 6 -1 9 -2 8 -2 0 -17 -3 -35 -5z"/> <path d="M1337 2789 c-10 -15 -21 -43 -24 -63 -5 -34 -4 -36 23 -36 39 0 53 11 51 38 -2 29 -11 28 -36 -5 -30 -37 -38 -21 -11 21 27 45 24 86 -3 45z"/> <path d="M2140 2805 c0 -7 81 -47 86 -43 2 3 -17 14 -41 26 -25 12 -45 20 -45 17z"/> <path d="M1556 2749 c-9 -22 -14 -44 -11 -48 7 -12 84 -11 91 1 4 6 -2 8 -17 4 -23 -7 -23 -6 -5 8 10 9 23 13 28 9 6 -3 5 4 -1 16 -9 16 -16 19 -29 12 -20 -11 -51 2 -33 13 13 9 15 26 2 26 -5 0 -16 -18 -25 -41z m34 -13 c0 -2 -3 -11 -6 -20 -9 -23 -24 -20 -24 4 0 11 7 20 15 20 8 0 15 -2 15 -4z"/> <path d="M705 2729 c-27 -17 -54 -36 -60 -42 -11 -11 58 28 96 55 40 28 17 20 -36 -13z"/> <path d="M1415 2728 c2 -32 3 -32 59 -35 56 -2 56 -2 56 27 0 16 -5 32 -11 36 -8 5 -10 -1 -5 -19 3 -14 1 -29 -4 -32 -6 -4 -10 -3 -9 2 4 22 -3 25 -17 7 -15 -18 -15 -18 -9 9 3 15 1 27 -5 27 -5 0 -10 -6 -10 -14 0 -7 -7 -20 -16 -27 -15 -12 -16 -11 -10 7 4 13 1 26 -8 33 -11 10 -13 6 -11 -21z"/> <path d="M1655 2728 l2 -33 68 0 c47 0 69 4 71 13 1 7 0 8 -3 2 -2 -5 -9 -10 -14 -10 -6 0 -5 8 1 20 9 16 7 22 -6 27 -12 4 -25 -3 -42 -23 l-24 -29 6 30 7 30 -26 -30 c-21 -24 -25 -26 -20 -9 3 12 0 26 -9 33 -11 10 -13 6 -11 -21z m105 -13 c-7 -9 -15 -13 -18 -10 -3 2 1 11 8 20 7 9 15 13 18 10 3 -2 -1 -11 -8 -20z"/> <path d="M2240 2757 c8 -9 200 -136 200 -132 0 6 -117 87 -165 115 -22 13 -38 21 -35 17z"/> <path d="M590 2649 c-35 -31 -35 -31 -3 -9 18 11 35 25 38 30 10 16 2 11 -35 -21z"/> <path d="M1033 2612 c5 -61 25 -112 59 -148 19 -21 19 -21 -3 -27 -18 -5 -21 -11 -17 -37 4 -23 0 -34 -15 -41 -12 -7 -17 -18 -14 -30 3 -12 -1 -20 -14 -24 -23 -8 -25 -42 -4 -72 14 -20 14 -22 -6 -28 -16 -5 -20 -14 -17 -40 1 -19 -1 -37 -5 -41 -12 -12 -8 -32 11 -51 14 -13 16 -26 11 -48 -4 -16 -7 -22 -8 -12 0 9 -8 17 -16 17 -21 0 -22 25 -6 205 5 57 5 122 0 153 -22 129 -26 149 -39 184 -20 55 -38 56 -61 2 -41 -93 -41 -205 1 -315 11 -29 17 -55 15 -57 -6 -6 -38 67 -96 215 -24 62 -49 113 -55 113 -6 0 -23 -32 -39 -71 -31 -79 -36 -151 -15 -213 11 -33 10 -39 -6 -50 -10 -8 -15 -20 -11 -30 4 -9 4 -23 0 -32 -5 -13 -7 -13 -14 -2 -13 19 -11 56 3 60 7 3 -6 21 -30 42 -23 21 -58 60 -78 87 -50 68 -67 66 -59 -8 4 -32 13 -82 20 -110 7 -29 9 -53 4 -53 -5 0 -9 -7 -9 -15 0 -8 -7 -15 -15 -15 -8 0 -16 -6 -17 -12 -6 -49 -4 -75 6 -88 6 -8 0 -6 -13 5 -23 19 -24 19 -17 1 11 -31 -17 -3 -75 75 -28 38 -55 69 -61 69 -16 0 4 -167 27 -224 7 -17 6 -17 -21 -3 -67 33 -114 29 -161 -15 -28 -26 -33 -98 -8 -98 8 0 15 7 15 15 0 21 43 39 74 31 14 -3 50 -30 79 -60 32 -31 73 -60 100 -71 27 -10 47 -24 47 -32 0 -11 7 -13 26 -9 19 5 25 3 22 -6 -3 -8 -26 -14 -63 -16 -76 -4 -128 18 -153 66 -23 45 -63 52 -86 16 -14 -20 -14 -27 -4 -45 11 -17 20 -20 53 -15 25 3 50 -1 65 -9 22 -13 12 -14 -102 -15 -109 0 -128 -2 -128 -16 0 -13 28 -15 233 -12 l233 3 -4 -24 c-4 -19 -2 -23 12 -18 10 4 16 1 16 -8 0 -18 21 -20 38 -3 9 9 12 9 12 -1 0 -7 6 -11 15 -8 8 4 17 2 20 -3 11 -18 26 -10 39 20 l12 31 12 -26 c11 -25 32 -35 32 -15 0 6 -4 10 -9 10 -8 0 -27 61 -34 110 -3 26 -8 10 -22 -85 -3 -19 -11 -35 -17 -35 -8 0 -9 24 -5 78 9 122 1 135 -38 54 -34 -71 -65 -109 -65 -78 0 9 18 53 40 99 42 84 28 80 -15 -5 -23 -44 -73 -94 -83 -83 -3 3 11 29 31 57 20 29 35 53 33 55 -1 1 -21 -7 -44 -19 -24 -11 -46 -17 -50 -13 -11 11 57 63 106 82 49 18 69 12 89 -28 l13 -24 1 25 c1 23 2 23 9 -5 l8 -30 1 28 c1 30 17 37 25 10 2 -10 10 -58 18 -107 9 -62 17 -90 28 -93 8 -2 23 -9 33 -14 14 -7 20 -4 28 15 7 14 17 22 25 19 8 -3 17 2 20 11 5 14 30 16 180 16 118 0 180 -4 193 -12 15 -9 25 -9 48 2 15 8 31 16 36 18 4 2 7 -7 7 -21 0 -13 7 -31 16 -38 14 -11 21 -10 45 4 29 16 30 16 41 -8 15 -33 60 -34 82 -3 15 21 16 21 36 3 28 -25 68 -7 76 35 7 33 16 37 34 15 14 -17 51 -20 66 -5 6 6 222 11 587 12 376 2 577 6 577 13 0 6 -35 11 -80 13 -44 2 -80 7 -80 12 0 6 9 19 21 31 20 20 20 21 2 52 -11 18 -33 42 -51 53 l-31 22 37 6 c92 14 110 81 28 110 -15 5 -16 9 -5 22 11 14 10 19 -10 35 -13 11 -34 19 -46 19 -23 0 -23 0 5 30 15 16 31 41 34 55 14 56 -42 93 -96 62 l-27 -16 2 37 c2 32 -1 37 -21 40 -14 2 -33 -7 -52 -27 -41 -41 -38 -24 6 27 52 61 104 55 104 -13 1 -26 2 -28 11 -12 18 30 2 67 -36 83 -18 7 -36 18 -40 24 -9 15 -61 12 -75 -5 -17 -21 -27 -19 -33 6 -4 15 -11 20 -24 17 -10 -3 -24 -7 -32 -9 -33 -9 -19 22 19 41 51 26 44 40 -20 40 -70 0 -144 -18 -183 -44 l-33 -23 -11 56 c-13 70 -59 175 -73 166 -5 -3 -10 -20 -10 -36 0 -30 -32 -136 -64 -211 -19 -45 -49 -44 -40 2 5 22 2 29 -13 34 -15 5 -18 13 -15 35 3 23 -1 30 -17 36 -17 5 -20 11 -14 28 10 28 11 193 1 203 -12 12 -36 -15 -64 -72 -22 -44 -29 -52 -41 -43 -10 9 -20 9 -39 0 -33 -15 -34 -14 -34 8 0 47 -50 60 -91 25 -22 -20 -29 -17 -29 9 0 35 -33 62 -59 48 -11 -6 -24 -18 -29 -27 -7 -13 -11 -12 -26 10 -9 14 -22 26 -28 26 -21 0 -57 -41 -51 -58 4 -10 2 -13 -6 -8 -6 4 -9 16 -6 25 4 12 -2 21 -20 29 -32 15 -49 8 -66 -26 -7 -15 -14 -28 -15 -30 -1 -1 -15 5 -31 14 -39 23 -63 13 -63 -25 0 -28 -1 -29 -29 -18 -25 9 -33 8 -49 -6 -18 -16 -21 -15 -80 41 -34 31 -62 63 -62 70 0 6 -5 12 -11 12 -8 0 -10 -18 -6 -58z m424 -33 c31 -60 62 -309 39 -309 -13 0 -58 115 -58 150 0 14 -3 19 -6 11 -7 -21 -55 80 -53 112 2 38 29 89 44 85 7 -2 22 -24 34 -49z m90 14 c12 -30 14 -62 10 -158 -5 -119 -12 -155 -27 -155 -5 0 -11 30 -15 68 -3 37 -10 102 -15 144 -9 77 0 138 21 138 6 0 17 -17 26 -37z m417 -4 c8 -47 -2 -111 -15 -103 -5 3 -8 20 -6 37 2 18 2 23 -1 12 -5 -18 -6 -18 -13 5 l-9 25 4 -27 c3 -25 -18 -47 -32 -33 -7 6 49 125 59 125 3 0 9 -18 13 -41z m-318 5 c11 -42 -4 -127 -37 -221 -41 -115 -54 -127 -44 -43 3 36 10 109 14 162 7 95 19 128 47 128 8 0 17 -12 20 -26z m-488 -71 l27 -22 -29 -1 c-21 0 -38 10 -58 33 -19 21 -25 25 -18 10 5 -12 15 -25 20 -28 12 -8 13 -35 1 -35 -10 0 -51 92 -51 115 0 16 14 7 108 -72z m177 51 c13 -8 26 -23 30 -32 5 -13 2 -12 -16 4 l-23 19 21 -30 c57 -83 138 -282 111 -273 -6 2 -46 62 -89 134 -55 90 -79 139 -79 162 0 36 9 39 45 16z m425 -22 c0 -21 2 -24 10 -12 6 10 8 2 3 -25 -3 -22 -12 -47 -20 -55 -12 -13 -13 -11 -4 13 21 54 10 52 -13 -3 -30 -72 -80 -152 -90 -143 -4 4 -4 -1 0 -11 5 -14 4 -17 -4 -12 -7 4 -17 -3 -24 -18 -11 -26 -28 -35 -28 -16 0 15 45 130 74 190 22 44 23 50 7 30 l-21 -25 10 30 c13 37 28 56 59 78 30 20 41 14 41 -21z m-830 24 c0 -2 9 -39 19 -82 21 -85 25 -135 23 -286 -1 -58 -6 -98 -12 -98 -5 0 -10 9 -10 20 0 11 -4 20 -8 20 -4 0 -5 26 -1 58 4 31 7 82 7 112 -1 48 -2 44 -12 -35 -11 -84 -13 -88 -20 -51 -5 21 -6 75 -2 119 9 103 -2 96 -13 -9 l-8 -79 -3 90 c-1 62 -4 82 -10 65 -11 -35 -12 -2 -1 56 12 64 28 104 41 104 5 0 10 -2 10 -4z m349 -84 c48 -50 151 -215 151 -241 0 -8 -37 22 -82 66 -80 78 -133 113 -190 127 -36 8 -37 36 -3 36 16 0 42 -16 70 -41 54 -50 57 -45 10 17 -67 88 -32 116 44 36z m583 13 c-6 -50 -32 -87 -126 -177 -82 -80 -106 -98 -106 -83 0 13 111 183 133 204 14 13 23 29 21 36 -7 16 44 57 65 53 11 -3 15 -13 13 -33z m337 -110 c8 -43 -2 -75 -12 -38 -3 12 -5 9 -6 -8 0 -15 -8 -32 -16 -39 -13 -11 -14 0 -10 86 4 99 4 99 -6 29 -19 -134 -20 -139 -29 -125 -5 9 -11 -2 -15 -31 -4 -28 -14 -50 -26 -57 -23 -15 -24 -10 -3 29 8 17 13 33 10 36 -3 3 -12 -12 -22 -33 -9 -22 -18 -34 -21 -28 -2 7 14 52 35 100 22 49 48 116 58 149 l18 59 18 -42 c10 -23 22 -62 27 -87z m-1439 -75 c6 -41 14 -83 17 -94 3 -12 1 -16 -6 -12 -6 4 -13 29 -17 57 -4 27 -10 51 -14 54 -4 2 -3 -17 1 -43 4 -26 5 -69 2 -97 -6 -43 -8 -46 -14 -25 -8 24 -2 -68 7 -120 4 -28 -11 -59 -23 -46 -4 4 -10 47 -11 96 -4 80 -2 90 16 101 18 12 19 15 5 48 -22 51 -21 117 2 191 l20 65 2 -50 c2 -27 8 -84 13 -125z m1164 161 c11 -18 -7 -41 -38 -49 -39 -11 -41 -9 -25 20 19 35 50 50 63 29z m-1051 -261 c19 -40 23 -56 14 -62 -8 -5 -17 10 -29 45 -12 35 -17 43 -15 23 1 -16 -3 -31 -9 -33 -7 -2 -14 18 -18 54 -4 32 -11 65 -17 73 -9 13 -10 13 -6 -2 3 -9 8 -45 12 -80 4 -50 3 -58 -5 -38 -13 30 -40 201 -40 250 1 30 8 19 44 -70 24 -58 55 -130 69 -160z m338 190 c47 -24 189 -156 189 -176 0 -19 -1 -19 -61 22 -61 41 -182 104 -200 104 -17 0 -49 30 -49 47 0 17 27 17 33 1 3 -8 6 -6 6 5 1 23 32 22 82 -3z m724 -7 c-10 -40 -17 -46 -97 -86 -40 -20 -95 -52 -123 -71 -103 -74 -45 12 78 116 44 38 103 66 136 68 9 0 11 -8 6 -27z m50 7 c6 -10 -29 -50 -44 -50 -5 0 -4 14 2 30 11 30 30 39 42 20z m442 -17 c-9 -2 -15 -9 -12 -14 3 -5 -2 -6 -11 -2 -13 5 -15 3 -9 -7 6 -10 4 -12 -9 -7 -9 4 -31 0 -48 -9 -17 -9 -47 -17 -67 -18 -26 -1 -38 -7 -47 -24 -6 -13 -17 -29 -24 -35 -10 -10 -11 -8 -6 8 6 16 5 18 -5 8 -7 -7 -17 -13 -22 -13 -33 0 81 79 148 102 28 10 68 17 90 17 22 -1 32 -3 22 -6z m-1253 -63 c81 -31 217 -122 207 -139 -6 -9 -18 -11 -40 -6 -17 4 -29 11 -26 16 4 5 0 7 -7 4 -7 -3 -59 10 -116 29 -56 19 -102 32 -102 28 0 -4 56 -26 124 -50 118 -41 197 -81 136 -68 -59 12 -115 16 -95 7 11 -5 28 -10 37 -10 9 -1 29 -6 45 -13 28 -11 27 -12 -22 -19 -133 -19 -251 -2 -291 42 -18 20 -18 21 1 36 14 10 34 13 70 9 l50 -6 -52 24 c-81 38 -93 91 -15 71 l27 -6 -22 21 c-54 50 -6 66 91 30z m836 6 c0 -34 -111 -95 -252 -139 -61 -20 -78 -22 -82 -11 -6 16 10 28 24 19 6 -4 9 -1 8 6 -3 15 121 89 197 119 61 23 105 26 105 6z m-1411 -83 c29 -34 50 -67 46 -72 -3 -6 2 -27 11 -48 15 -35 44 -129 44 -144 0 -4 -9 -9 -19 -12 -29 -7 -126 102 -107 120 10 10 47 -29 73 -77 26 -48 25 -34 -2 40 -11 28 -15 63 -12 93 2 26 0 47 -4 47 -5 0 -9 -6 -9 -12 0 -7 -11 4 -24 25 -33 54 -42 59 -17 9 27 -53 20 -67 -9 -21 -18 28 -20 29 -14 9 3 -14 20 -40 35 -58 29 -32 38 -62 20 -62 -14 0 -41 41 -41 63 0 10 -4 16 -9 13 -9 -6 -25 51 -37 134 -7 52 -11 54 75 -47z m1769 -68 c0 -74 -3 -135 -7 -135 -5 0 -14 27 -21 60 -17 81 -24 70 -8 -13 l13 -67 35 2 c40 1 76 -15 102 -46 26 -31 23 -136 -3 -136 -6 0 -5 8 1 19 19 36 12 77 -19 110 -28 30 -71 42 -71 20 0 -5 5 -7 10 -4 15 9 47 -4 54 -21 5 -12 2 -15 -9 -10 -9 3 -13 2 -10 -4 3 -6 1 -10 -6 -10 -7 0 -10 -3 -7 -6 4 -3 16 0 28 6 20 11 21 10 15 -12 -5 -18 -4 -20 4 -8 8 12 11 8 11 -17 0 -46 -51 -87 -98 -79 -53 8 -84 42 -79 86 5 43 16 70 29 70 5 0 8 -7 6 -16 -4 -22 37 -50 48 -33 5 8 3 9 -6 4 -10 -6 -12 -4 -7 8 3 10 2 17 -2 17 -5 0 -11 -5 -13 -12 -3 -9 -6 -9 -12 0 -4 8 1 16 16 21 l23 10 -25 1 c-25 1 -25 1 -2 10 33 14 27 21 -7 9 -63 -22 -84 -116 -35 -158 42 -37 66 -41 112 -21 42 19 60 10 21 -10 -38 -21 -96 -14 -134 14 -19 15 -35 31 -35 36 0 5 -22 -5 -50 -22 -63 -39 -66 -49 -4 -13 60 35 68 25 10 -14 -119 -82 -244 -109 -220 -48 10 27 83 68 170 95 67 22 84 31 85 47 4 64 3 70 -9 67 -20 -4 -173 104 -188 133 -16 32 -17 35 -5 54 7 11 18 7 56 -19 25 -17 48 -37 51 -44 3 -7 28 -37 57 -68 l52 -56 27 21 27 22 -46 105 c-28 66 -45 122 -46 150 -4 98 56 26 93 -111 14 -53 18 -61 14 -29 -3 25 -15 70 -25 100 -30 85 -32 100 -4 45 24 -49 36 -50 14 -1 -15 32 -5 63 15 47 10 -8 13 -45 14 -146z m56 138 c4 -9 2 -39 -3 -67 -5 -28 -13 -87 -17 -131 -10 -120 -24 -62 -22 90 2 110 4 125 19 125 9 0 20 -8 23 -17z m62 -8 c10 -24 -53 -275 -69 -275 -16 0 13 233 34 272 12 22 28 23 35 3z m109 4 c4 -5 -4 -20 -17 -32 -13 -12 -46 -64 -73 -114 -27 -51 -50 -91 -52 -89 -4 4 43 170 56 193 21 41 72 66 86 42z m-562 -35 c13 -14 -9 -38 -57 -60 l-51 -24 58 0 c66 0 86 -20 49 -50 -43 -35 -142 -53 -247 -45 -100 7 -109 12 -53 25 l33 8 -38 1 c-52 1 -39 17 30 37 72 21 177 68 210 94 25 20 54 26 66 14z m197 -13 c0 -5 3 -18 7 -28 6 -16 5 -16 -10 -4 -19 15 -23 41 -7 41 6 0 10 -4 10 -9z m-31 -36 c21 -19 54 -66 74 -103 35 -67 56 -123 42 -110 -5 4 -14 3 -20 -2 -10 -8 -30 8 -79 61 -70 78 -96 121 -96 163 0 37 31 34 79 -9z m-592 3 c44 -24 73 -75 73 -131 0 -36 -27 -77 -46 -70 -8 3 -14 0 -14 -6 0 -6 3 -10 8 -10 19 3 22 -2 10 -14 -20 -20 -59 -39 -66 -33 -3 3 -1 6 4 6 6 0 19 7 30 15 17 13 15 13 -18 3 -24 -7 -35 -15 -31 -24 3 -9 -2 -14 -15 -14 -11 0 -22 8 -25 19 -4 15 2 20 34 25 25 4 44 14 55 30 10 16 22 23 32 19 11 -3 13 -2 5 4 -6 4 -13 24 -16 43 l-4 35 -1 -36 c-1 -20 -9 -42 -18 -49 -13 -12 -14 -8 -8 38 6 45 4 53 -19 76 -18 18 -33 24 -50 20 -14 -2 -29 1 -32 6 -5 7 8 10 38 9 36 -2 48 -8 63 -31 11 -15 23 -28 28 -28 5 0 3 6 -3 13 -6 8 -8 17 -4 20 3 4 -2 7 -12 7 -14 0 -16 3 -7 12 8 8 15 8 26 -1 9 -7 15 -16 14 -19 -2 -18 3 -32 11 -32 5 0 7 9 4 20 -6 22 -58 70 -76 70 -6 0 -2 -7 9 -16 18 -14 18 -15 -6 -8 -51 14 -98 7 -123 -20 -9 -11 -20 -16 -24 -13 -3 4 2 16 12 27 17 19 17 19 -8 7 -13 -6 -23 -17 -20 -23 2 -7 0 -15 -6 -19 -6 -3 -11 -14 -10 -23 0 -12 3 -11 9 6 14 33 21 27 17 -13 -2 -19 0 -32 4 -29 5 3 9 13 9 23 0 21 37 67 46 58 4 -3 -3 -18 -15 -33 -12 -15 -18 -30 -15 -33 4 -3 9 0 11 7 9 25 35 42 63 42 63 0 80 -98 22 -118 -29 -10 -72 0 -72 17 0 17 18 21 24 6 5 -13 56 -23 56 -11 0 2 3 13 6 23 5 17 5 17 -6 1 -12 -19 -50 -25 -50 -8 0 5 8 6 18 3 16 -7 16 -6 -1 11 -9 10 -15 22 -12 27 4 5 1 9 -5 9 -6 0 -8 5 -4 12 5 8 11 6 20 -7 7 -10 11 -22 7 -28 -3 -6 -1 -7 5 -3 8 5 8 13 0 31 -6 14 -14 25 -18 25 -15 0 -42 -40 -37 -54 4 -9 2 -18 -3 -21 -6 -4 -10 1 -10 9 0 9 -5 16 -11 16 -5 0 -7 -4 -4 -10 3 -5 -3 -10 -14 -10 -19 0 -19 -2 -5 -36 14 -34 14 -36 -2 -30 -14 5 -15 4 -4 -8 10 -12 8 -21 -8 -43 -11 -15 -30 -48 -42 -73 -12 -25 -38 -67 -56 -95 -55 -82 -134 -121 -134 -65 0 23 205 250 227 250 9 0 5 12 -12 39 -21 31 -26 49 -24 90 2 28 6 51 11 51 4 0 8 6 8 13 0 19 39 52 75 65 48 17 87 14 132 -10z m1013 -32 c0 -24 -78 -141 -87 -132 -3 3 -2 11 3 19 5 7 -1 2 -13 -12 -12 -14 -20 -27 -18 -29 9 -9 -25 -32 -39 -26 -20 8 -21 6 10 65 29 59 118 154 133 144 6 -3 11 -16 11 -29z m-506 -12 c5 -12 2 -15 -10 -10 -8 3 -18 6 -20 6 -3 0 -2 5 1 10 9 15 22 12 29 -6z m-1321 -82 c-3 -77 -14 -124 -31 -130 -17 -5 -15 52 3 111 8 26 10 45 5 42 -6 -4 -10 -15 -10 -26 0 -10 -4 -19 -10 -19 -14 0 -13 9 6 64 23 66 40 46 37 -42z m67 40 c0 -16 -9 -37 -19 -46 -19 -17 -19 -16 -10 21 5 21 9 41 9 46 0 4 5 7 10 7 6 0 10 -13 10 -28z m1871 12 c31 -38 -72 -142 -177 -178 -24 -8 -42 -11 -39 -7 3 5 -3 12 -12 15 -14 6 -11 12 17 41 18 19 37 32 41 29 5 -3 6 1 4 8 -10 25 94 107 136 108 9 0 23 -7 30 -16z m-1914 -41 c-3 -10 -5 -2 -5 17 0 19 2 27 5 18 2 -10 2 -26 0 -35z m87 15 c-16 -28 -27 -38 -36 -32 -5 3 -2 14 8 25 19 21 39 26 28 7z m-334 -28 c0 -6 -5 -10 -10 -10 -7 0 -7 -6 -1 -19 6 -10 7 -21 4 -25 -3 -3 0 -6 7 -6 7 0 11 -3 8 -6 -11 -10 -78 25 -78 41 0 17 11 14 44 -14 19 -16 19 -15 3 9 -9 13 -17 33 -17 43 0 15 3 16 20 7 11 -6 20 -15 20 -20z m370 -6 c0 -32 -122 -159 -144 -151 -8 3 -20 -1 -26 -9 -7 -8 -23 -12 -36 -10 -13 3 -24 0 -24 -6 0 -5 6 -8 14 -5 19 7 40 -18 32 -38 -3 -9 -16 -20 -28 -25 -16 -6 -18 -9 -6 -9 25 -1 50 29 45 55 -2 13 1 25 7 27 19 8 18 -54 0 -74 -21 -23 -77 -25 -98 -3 -40 39 -10 115 43 113 21 -1 22 -2 6 -6 -48 -12 -70 -68 -38 -94 15 -13 15 -12 4 9 -6 12 -8 28 -4 35 4 6 8 17 8 22 0 6 15 10 33 10 21 0 31 4 28 12 -3 7 0 10 7 7 7 -2 19 15 29 44 10 26 29 59 43 72 24 23 25 23 25 3 0 -11 -16 -45 -36 -74 -36 -54 -37 -54 -6 -25 17 15 40 51 52 78 17 41 36 59 68 67 1 1 2 -11 2 -25z m1115 16 c19 -30 -43 -50 -104 -33 -21 5 -17 8 30 24 67 21 66 21 74 9z m-998 -11 c15 -6 46 -14 68 -18 l40 -8 -56 -7 c-61 -9 -99 3 -99 29 0 18 9 19 47 4z m-697 -14 c11 7 85 -85 86 -108 2 -25 -53 34 -72 78 -10 22 -13 25 -13 10 -1 -11 13 -46 29 -79 16 -32 27 -62 24 -68 -3 -5 0 -16 7 -24 9 -11 9 -18 1 -26 -20 -20 -63 88 -75 192 -3 25 -4 39 -1 32 3 -6 9 -10 14 -7z m1000 -8 c0 -7 -49 -32 -110 -56 -88 -35 -119 -42 -151 -38 -49 6 -74 24 -59 42 10 12 191 50 275 58 22 2 41 4 43 5 1 1 2 -4 2 -11z m618 -21 c86 -27 58 -66 -49 -66 -53 0 -239 64 -239 83 0 15 226 2 288 -17z m111 10 c10 -12 8 -13 -8 -9 -12 3 -21 9 -21 14 0 14 16 11 29 -5z m-623 -11 c9 -8 12 -20 8 -26 -5 -9 -11 -6 -21 6 -23 33 -14 47 13 20z m-496 -15 c0 -5 -21 -23 -47 -40 -56 -35 -53 -38 8 -10 51 23 70 25 63 7 -7 -18 -39 -36 -113 -63 -73 -26 -101 -18 -49 14 18 11 51 39 73 61 39 39 65 52 65 31z m1238 -62 c52 -29 66 -48 36 -48 -9 0 -12 5 -8 12 4 6 3 8 -4 4 -14 -9 -158 14 -176 28 -9 7 -12 22 -9 43 l5 32 52 -20 c28 -11 75 -34 104 -51z m-1628 32 c19 -10 45 -29 57 -42 20 -21 21 -27 9 -43 -13 -18 -16 -17 -96 11 -46 16 -85 35 -88 42 -7 23 46 12 112 -23 36 -19 66 -33 66 -31 0 2 -31 25 -70 50 -97 64 -91 87 10 36z m795 21 c3 -5 -13 -20 -35 -32 -22 -12 -38 -25 -35 -27 2 -2 20 5 40 17 43 25 45 25 45 6 0 -20 -125 -122 -185 -151 -27 -13 -44 -24 -37 -24 16 0 82 27 102 43 9 7 2 -2 -17 -19 -30 -29 -90 -54 -126 -54 -31 0 -29 22 4 57 25 26 28 32 12 24 -12 -6 -31 -11 -42 -11 -86 0 43 107 194 161 59 21 72 22 80 10z m215 -10 c0 -13 -56 -21 -90 -15 -39 8 -28 26 11 19 17 -3 38 -1 47 4 17 10 32 6 32 -8z m243 -31 c100 -39 167 -81 167 -104 0 -18 -22 -26 -49 -19 -21 5 -21 5 -4 -26 16 -28 16 -33 3 -41 -21 -15 -78 -3 -128 27 -53 30 -51 40 3 13 22 -11 51 -20 65 -19 18 0 12 5 -25 17 -47 17 -137 71 -150 92 -3 5 -20 19 -38 32 -18 12 12 -25 66 -82 109 -116 135 -154 117 -175 -28 -34 -75 10 -166 156 -62 101 -63 104 -45 122 18 18 20 18 70 -7 28 -15 51 -24 51 -21 0 2 -22 20 -50 38 -51 34 -56 53 -10 42 14 -4 69 -24 123 -45z m-331 -4 c4 -6 7 -18 7 -26 -1 -12 -2 -11 -6 2 -2 9 -15 19 -29 22 -13 4 -24 11 -24 17 0 13 42 1 52 -15z m1246 15 c11 -6 11 -10 0 -18 -16 -13 -215 -56 -231 -50 -7 2 22 20 63 40 74 35 140 46 168 28z m-2301 -51 c7 0 13 -4 13 -10 0 -21 -26 -9 -43 19 -22 38 -22 55 1 19 9 -16 22 -28 29 -28z m658 21 c38 -6 39 -7 18 -19 -29 -16 -54 -15 -81 4 -25 17 -20 40 7 28 9 -4 34 -10 56 -13z m924 -17 c-15 -19 -41 -18 -85 4 l-37 17 54 5 c60 6 86 -4 68 -26z m-1021 4 c-3 -7 -18 -14 -34 -16 l-29 -2 25 14 c31 19 43 20 38 4z m442 -11 c0 -8 -9 -40 -20 -72 -11 -32 -20 -63 -20 -69 1 -13 59 104 60 120 0 6 7 11 15 11 12 0 13 -12 8 -61 -15 -160 -49 -271 -84 -271 -11 0 -14 15 -14 63 0 61 0 63 -15 40 -24 -37 -62 -69 -79 -66 -28 6 -25 60 6 99 15 20 51 77 78 127 48 87 65 108 65 79z m215 -68 c66 -103 95 -164 95 -204 0 -28 -4 -35 -19 -35 -32 0 -57 44 -100 179 -23 71 -41 132 -41 136 0 16 23 -11 65 -76z m490 55 c75 -8 112 -21 99 -34 -16 -16 -230 -25 -239 -11 -10 18 -5 20 61 31 l59 9 -63 -3 c-56 -2 -61 -1 -40 11 13 7 32 11 43 9 11 -3 47 -8 80 -12z m-1808 -29 c28 -17 43 -32 39 -41 -3 -7 0 -16 6 -20 7 -5 8 -2 3 6 -5 8 -4 11 3 7 5 -4 9 -15 7 -25 -1 -9 7 -22 19 -29 34 -20 -1 -15 -42 6 -38 19 -82 61 -66 61 15 1 -60 39 -76 39 -8 0 -3 -7 13 -15 15 -8 27 -17 27 -20 0 -2 -8 0 -18 5 -20 11 -60 9 -80 -3 -16 -9 -15 6 1 26 35 45 90 46 164 3z m1270 -56 c32 -93 42 -215 19 -244 -14 -19 -16 -19 -32 -3 -14 14 -19 43 -25 140 -4 68 -10 135 -14 150 -8 31 2 55 17 40 5 -5 21 -42 35 -83z m1174 81 c51 -28 -1 -71 -88 -72 -67 0 -185 21 -178 32 3 5 -1 10 -7 13 -7 2 16 11 52 19 77 18 193 22 221 8z m-2239 -11 c66 -14 93 -28 81 -40 -11 -11 -123 4 -170 22 -22 8 -24 12 -13 19 20 13 38 12 102 -1z m458 0 c0 -8 4 -8 14 0 14 12 46 5 46 -10 0 -6 -10 -4 -22 2 -22 12 -22 11 -5 -8 9 -11 17 -27 17 -37 0 -9 7 -19 15 -22 8 -4 15 -17 15 -29 0 -13 5 -27 10 -30 6 -3 10 -18 9 -33 l0 -27 -11 25 c-10 23 -89 160 -92 160 0 0 -19 -7 -41 -15 -22 -8 -67 -14 -100 -15 -53 0 -58 2 -44 15 27 27 189 48 189 24z m550 -84 c15 -113 8 -199 -18 -234 -27 -37 -41 -37 -57 3 -13 31 -13 44 -1 103 8 37 17 97 21 133 8 81 11 90 28 90 11 0 18 -26 27 -95z m-1060 17 c-22 -8 -48 -11 -58 -7 -16 6 -15 8 2 21 11 8 14 14 8 14 -7 0 -12 4 -12 8 0 5 23 2 51 -7 l50 -16 -41 -13z m526 0 c12 -18 13 -23 3 -16 -8 7 -29 15 -46 19 -36 7 -43 21 -15 27 26 6 39 -1 58 -30z m-71 -7 c25 -14 47 -24 49 -22 8 4 66 -44 77 -64 10 -20 8 -20 -33 5 -28 17 -42 32 -40 43 2 14 1 15 -6 5 -7 -11 -24 -9 -88 7 -43 11 -80 19 -82 17 -1 -2 18 -16 43 -30 25 -15 61 -41 80 -57 19 -17 35 -29 37 -28 5 4 152 -33 168 -42 10 -6 4 -8 -19 -9 -44 0 -152 30 -169 47 -7 7 -17 13 -22 13 -5 0 -39 23 -76 50 -36 28 -68 49 -70 47 -3 -2 7 -12 21 -21 31 -21 85 -93 85 -115 -1 -16 -44 26 -103 99 -34 43 -25 22 20 -44 32 -47 42 -76 25 -76 -22 0 -102 142 -83 148 6 2 17 10 25 17 7 8 17 11 22 7 5 -4 3 1 -4 10 -22 28 86 23 143 -7z m1195 21 c0 -3 -17 -10 -37 -17 -21 -6 -44 -18 -51 -26 -18 -17 -66 -17 -81 1 -19 22 33 44 107 45 34 1 62 -1 62 -3z m453 -17 c124 -31 199 -83 183 -125 -8 -21 -44 -17 -105 11 -67 31 -77 26 -18 -8 24 -14 49 -33 57 -41 11 -14 9 -16 -10 -16 -21 0 -95 71 -95 92 0 4 -22 22 -50 40 -70 46 -68 45 -61 57 9 14 4 15 99 -10z m-1953 3 c0 -12 -69 -32 -88 -25 -12 3 -14 2 -4 -4 18 -13 -28 -33 -75 -33 -32 0 -34 2 -22 17 23 27 91 53 142 53 26 0 47 -4 47 -8z m1638 -52 c-7 -10 -31 -43 -53 -73 -28 -39 -47 -56 -62 -57 -29 0 -29 11 -2 36 11 10 25 28 30 39 6 11 -10 -2 -34 -29 -28 -31 -50 -47 -62 -45 -14 3 -5 15 39 51 32 27 61 46 65 43 5 -2 23 11 41 30 33 34 62 38 38 5z m249 1 c40 -29 113 -108 113 -123 0 -4 -15 -8 -32 -7 -29 0 -39 8 -85 74 -29 40 -53 76 -53 79 0 12 18 5 57 -23z m-2142 -8 c19 -9 35 -20 35 -25 0 -5 -12 -2 -27 6 -66 36 -71 49 -8 19z m555 1 c22 -9 40 -23 40 -30 0 -12 -4 -12 -27 0 -35 18 -71 45 -61 46 4 0 26 -7 48 -16z m1569 -48 c28 -35 51 -67 51 -70 0 -3 -10 -6 -22 -6 -18 1 -30 15 -53 61 -51 102 -47 105 24 15z m-516 18 c-3 -22 -12 -33 -34 -41 -16 -6 -29 -9 -29 -6 0 7 62 85 65 81 1 -2 1 -17 -2 -34z m321 14 c-22 -72 -44 -108 -64 -108 l-22 0 22 38 c20 35 5 21 -24 -23 -8 -11 -17 -17 -21 -13 -8 8 65 104 77 100 5 -1 11 5 14 13 10 24 26 17 18 -7z m155 -45 l31 -63 -28 0 c-25 0 -29 5 -43 60 -11 41 -12 61 -5 63 14 5 8 12 45 -60z m-581 42 c2 -2 -1 -12 -6 -22 -10 -17 -11 -17 -18 2 -4 11 -12 24 -18 28 -6 5 0 5 14 1 14 -3 27 -8 28 -9z m43 -28 c-53 -78 -79 -85 -44 -13 13 29 35 46 71 55 2 1 -10 -18 -27 -42z m424 11 c-3 -15 -8 -41 -11 -58 -4 -24 -11 -30 -31 -30 -20 0 -24 4 -18 18 4 9 14 35 21 58 17 48 48 58 39 12z m-1875 12 c-20 -13 -53 -13 -45 0 3 6 18 10 33 10 21 0 24 -2 12 -10z m607 -57 c-2 -1 -24 4 -48 12 -31 11 -45 21 -46 34 -1 17 4 16 48 -11 27 -17 48 -33 46 -35z m81 37 c-5 -17 -7 -38 -4 -46 6 -15 4 -15 -16 -2 -29 20 -36 64 -11 71 40 10 42 8 31 -23z m1243 -6 c14 -64 11 -74 -22 -74 -31 0 -31 1 -25 38 3 20 6 44 6 54 0 28 34 14 41 -18z m-2129 1 c11 -15 10 -27 -2 -20 -5 3 -7 0 -4 -8 4 -10 -2 -14 -20 -14 -14 0 -23 3 -21 7 3 5 -1 11 -7 14 -11 5 -11 7 0 12 6 3 10 10 7 14 -8 13 39 8 47 -5z m388 -48 c-7 -35 -21 -65 -37 -81 -14 -15 -28 -25 -30 -23 -1 2 14 40 34 85 21 44 40 79 41 77 2 -2 -1 -28 -8 -58z m130 -61 c0 -54 -9 -40 -26 40 -17 86 -17 89 7 39 10 -22 19 -58 19 -79z m130 72 c0 -18 -17 -7 -29 19 -13 28 -13 28 8 9 12 -11 21 -23 21 -28z m1200 27 c0 -11 -84 -65 -102 -65 -28 0 -24 40 5 41 12 0 38 7 57 14 19 7 36 14 38 14 1 1 2 -1 2 -4z m-136 -29 c-5 -14 -82 -41 -91 -32 -6 5 66 45 84 46 7 0 10 -6 7 -14z m-970 -36 c2 -3 -16 -3 -40 -1 -27 2 -44 8 -44 16 0 10 8 11 39 1 22 -6 42 -14 45 -16z m226 15 c0 -8 -9 -15 -19 -15 -29 0 -35 18 -9 23 13 2 24 5 26 6 1 0 2 -6 2 -14z m-360 -36 c0 -22 -11 -24 -28 -7 -15 15 -16 32 -2 23 6 -3 10 -1 10 5 0 6 5 8 10 5 6 -3 10 -15 10 -26z m-46 -11 c3 -12 1 -29 -4 -37 -7 -13 -10 -11 -19 12 -6 16 -11 35 -11 42 0 21 27 7 34 -17z"/> <path d="M2394 1938 c-1 -35 1 -35 14 0 7 21 7 29 -2 29 -6 0 -11 -13 -12 -29z"/> <path d="M2320 1938 c0 -8 6 -21 13 -29 6 -8 11 -12 10 -10 -2 2 2 10 9 18 9 11 7 12 -7 7 -12 -5 -16 -4 -11 4 3 6 2 13 -4 17 -5 3 -10 0 -10 -7z"/> <path d="M2416 1915 c-3 -8 -15 -15 -26 -15 -14 0 -19 4 -14 13 4 6 3 9 -1 4 -11 -10 -14 -48 -3 -41 4 3 9 -5 9 -18 1 -16 3 -18 6 -6 3 10 11 15 21 12 9 -3 6 2 -8 10 l-25 16 27 -4 c29 -5 53 15 45 36 -4 8 -6 7 -6 -4 -1 -9 -6 -20 -12 -24 -8 -4 -9 0 -4 15 7 24 0 29 -9 6z"/> <path d="M2176 2154 c20 -33 122 -149 109 -124 -8 14 -96 121 -119 145 -5 6 -1 -4 10 -21z"/> <path d="M1556 2135 c20 -30 24 -31 17 -6 -3 11 -11 22 -19 25 -11 4 -11 0 2 -19z"/> <path d="M1397 2107 c-3 -7 1 -26 9 -42 11 -24 13 -25 7 -5 -3 14 -6 33 -5 43 1 20 -4 22 -11 4z"/> <path d="M1647 2090 c-3 -11 -2 -20 3 -20 4 0 10 9 13 20 3 11 2 20 -3 20 -4 0 -10 -9 -13 -20z"/> <path d="M2605 2054 c-33 -24 -65 -42 -71 -40 -6 2 -11 -2 -11 -9 0 -11 5 -11 27 0 15 8 31 11 35 7 5 -4 5 -1 1 6 -6 9 -2 12 10 10 11 -2 19 3 19 11 0 8 6 16 14 19 9 3 11 0 6 -9 -5 -8 0 -6 12 4 11 9 20 24 20 32 0 8 -1 15 -1 14 -1 0 -28 -20 -61 -45z"/> <path d="M897 2075 c-9 -19 -15 -35 -12 -35 7 0 37 61 33 66 -3 2 -12 -12 -21 -31z"/> <path d="M1875 1915 c17 -8 41 -14 55 -14 23 0 23 1 5 8 -11 5 -36 11 -55 15 l-35 6 30 -15z"/> <path d="M350 1855 c19 -14 39 -25 44 -25 6 0 -6 11 -26 25 -20 14 -40 25 -44 25 -5 0 7 -11 26 -25z"/> <path d="M2529 1853 c36 -26 101 -65 101 -59 0 5 -100 70 -115 74 -5 1 1 -5 14 -15z"/> <path d="M2450 2617 c0 -2 15 -16 33 -33 l32 -29 -29 33 c-28 30 -36 37 -36 29z"/> <path d="M2024 2548 c-7 -11 -11 -33 -17 -88 -1 -16 4 -26 16 -28 12 -2 17 3 17 17 0 12 -4 21 -10 21 -5 0 -10 7 -10 15 0 13 4 14 20 5 11 -6 18 -15 15 -21 -4 -5 -2 -9 4 -9 15 0 23 57 11 79 -12 23 -35 28 -46 9z m36 -17 c14 -27 13 -44 -2 -38 -7 2 -12 10 -10 16 1 6 -2 11 -8 11 -5 0 -10 7 -10 15 0 21 17 19 30 -4z"/> <path d="M415 2498 l-50 -53 53 50 c28 27 52 51 52 52 0 8 -9 -1 -55 -49z"/> <path d="M2575 2500 c27 -27 51 -50 54 -50 3 0 -17 23 -44 50 -27 28 -51 50 -54 50 -3 0 17 -22 44 -50z"/> <path d="M2054 2433 c6 -18 4 -21 -13 -18 -12 2 -21 0 -21 -6 0 -5 9 -9 20 -9 25 0 37 27 20 43 -10 9 -11 7 -6 -10z"/> <path d="M263 2318 c-20 -26 -26 -41 -15 -34 12 7 36 46 29 46 -3 0 -9 -6 -14 -12z"/> <path d="M2729 2312 c6 -12 16 -24 22 -28 8 -4 8 -1 0 14 -6 12 -16 24 -22 28 -8 4 -8 1 0 -14z"/> <path d="M224 2258 c-4 -7 -14 -24 -22 -38 -14 -24 -13 -24 3 -5 20 24 37 55 31 55 -3 0 -8 -6 -12 -12z"/> <path d="M2769 2255 c5 -11 17 -29 26 -40 16 -20 16 -20 6 0 -5 11 -17 29 -26 40 -16 20 -16 20 -6 0z"/> <path d="M160 2149 c-12 -23 -20 -43 -18 -45 3 -2 14 17 26 41 27 56 20 60 -8 4z"/> <path d="M2837 2135 c15 -30 29 -53 31 -51 4 5 -46 106 -53 106 -3 0 7 -25 22 -55z"/> <path d="M112 2045 c-17 -37 -14 -45 4 -12 9 16 14 31 11 33 -2 2 -9 -7 -15 -21z"/> <path d="M2895 2005 c25 -66 35 -86 35 -72 0 13 -43 122 -52 132 -5 5 3 -22 17 -60z"/> <path d="M81 1969 c-6 -18 -9 -34 -7 -36 2 -2 9 10 15 28 6 18 9 34 7 36 -2 2 -9 -10 -15 -28z"/> <path d="M41 1843 c-6 -21 -11 -45 -10 -53 0 -8 7 7 14 35 8 27 12 51 10 53 -2 2 -8 -13 -14 -35z"/> <path d="M2822 1840 c-27 -26 -27 -40 -2 -91 20 -38 23 -40 62 -37 31 2 46 10 61 30 53 71 -56 159 -121 98z m100 -17 c26 -24 23 -69 -6 -89 -14 -8 -35 -14 -47 -12 -28 4 -38 28 -11 28 25 0 46 25 38 46 -9 24 -41 13 -40 -14 1 -27 -23 -26 -40 0 -26 42 65 78 106 41z m-42 -38 c0 -8 -4 -15 -10 -15 -5 0 -10 7 -10 15 0 8 5 15 10 15 6 0 10 -7 10 -15z"/> <path d="M2588 1414 c-28 -15 -43 -47 -36 -81 2 -10 28 -31 63 -49 70 -35 82 -67 29 -72 -25 -2 -37 3 -58 28 -14 17 -26 38 -26 46 0 8 -5 14 -10 14 -7 0 -9 -13 -5 -32 6 -38 -6 -63 -28 -55 -7 3 -30 50 -49 104 -28 78 -40 99 -57 101 -12 2 -21 -2 -21 -10 0 -7 -14 -53 -32 -101 -22 -62 -38 -91 -52 -97 -16 -7 -10 -9 24 -8 25 0 37 2 28 5 -21 5 -21 4 -8 38 8 21 16 26 38 23 21 -2 28 -9 30 -30 2 -19 -2 -28 -15 -31 -10 -3 21 -5 70 -6 71 -1 87 2 87 14 0 19 5 19 35 -1 36 -24 94 -15 118 18 32 43 15 76 -58 113 -65 33 -78 58 -32 63 31 4 64 -19 78 -53 6 -15 8 -8 8 25 0 27 -3 40 -7 32 -7 -10 -14 -10 -38 3 -35 18 -42 18 -76 -1z m-200 -132 c-27 -5 -30 1 -17 34 l11 29 12 -30 c11 -27 11 -30 -6 -33z"/> <path d="M372 1413 c18 -5 53 -71 84 -160 10 -29 23 -53 29 -53 6 0 16 19 23 43 7 23 16 48 19 56 3 8 1 11 -5 7 -7 -4 -19 17 -33 54 l-22 60 -56 -1 c-31 -1 -48 -3 -39 -6z"/> <path d="M559 1408 c0 -7 0 -54 1 -105 1 -81 -1 -92 -17 -96 -10 -3 32 -5 92 -5 61 0 102 2 93 5 -36 9 -17 63 22 63 20 0 29 -6 34 -22 8 -33 8 -36 -11 -41 -10 -3 47 -5 127 -5 80 0 137 2 128 5 -20 5 -23 34 -19 166 1 44 26 51 41 11 11 -27 -2 -64 -22 -64 -7 0 -7 -4 0 -12 5 -7 13 -29 17 -48 4 -19 12 -41 17 -47 22 -27 98 -8 98 25 0 14 -2 15 -10 2 -5 -8 -10 -12 -12 -10 -2 3 -10 19 -18 35 -9 17 -25 31 -38 33 -30 5 -28 22 3 22 23 0 45 24 45 49 0 6 -9 20 -20 31 -17 17 -32 20 -117 19 -54 -1 -90 -3 -80 -6 15 -4 17 -18 17 -104 0 -98 0 -99 -24 -99 -32 0 -38 10 -76 118 -44 123 -54 122 -104 -14 -37 -99 -41 -105 -65 -102 -26 3 -26 4 -29 96 -3 88 -2 93 20 102 18 7 11 9 -34 9 -40 1 -58 -3 -59 -11z m206 -105 c5 -19 2 -23 -14 -23 -23 0 -24 3 -15 38 7 26 18 20 29 -15z"/> <path d="M1228 1404 c-36 -19 -48 -43 -48 -99 0 -84 76 -129 155 -93 21 9 31 9 46 0 18 -11 19 -9 19 32 0 31 5 48 16 54 11 6 -8 9 -57 9 -53 1 -67 -2 -51 -8 20 -7 23 -15 20 -46 -2 -28 -8 -39 -22 -42 -30 -5 -46 27 -46 94 0 69 19 105 54 105 23 0 66 -37 66 -58 0 -6 5 -14 10 -17 6 -4 10 12 10 41 0 39 -2 45 -14 35 -11 -9 -20 -9 -35 -2 -28 15 -91 13 -123 -5z"/> <path d="M1515 1408 c-33 -104 -72 -191 -90 -198 -14 -6 -6 -9 30 -8 28 0 42 2 32 5 -13 3 -17 12 -15 31 2 21 9 28 30 30 22 3 30 -2 38 -23 13 -34 14 -33 -12 -38 -13 -2 45 -5 127 -5 97 0 142 2 128 8 -21 8 -22 15 -22 105 0 86 2 95 18 95 33 0 44 -72 15 -88 -11 -6 -13 -11 -5 -16 6 -4 11 -19 11 -34 0 -40 26 -72 59 -72 31 0 66 32 58 52 -4 8 -6 7 -6 -4 -1 -28 -17 -21 -31 12 -7 18 -22 33 -36 36 -32 8 -30 22 4 26 22 2 28 8 30 35 5 50 -24 63 -138 62 -52 -1 -85 -4 -72 -6 21 -4 22 -9 22 -104 l0 -99 -29 0 c-28 0 -32 5 -59 78 -17 42 -34 90 -37 105 -7 28 -42 39 -50 15z m4 -98 c9 -28 8 -30 -14 -30 -22 0 -23 2 -14 30 6 17 12 30 14 30 2 0 8 -13 14 -30z"/> <path d="M1943 1413 c15 -4 17 -18 17 -103 0 -85 -2 -99 -17 -103 -10 -3 16 -5 57 -5 54 -1 69 2 53 8 -21 9 -23 15 -23 99 0 75 3 92 18 100 13 8 -1 10 -53 10 -38 -1 -62 -3 -52 -6z"/> <path d="M2080 1368 l1 -53 25 48 c40 77 54 64 54 -52 0 -95 -1 -100 -22 -104 -13 -2 13 -5 57 -5 57 -1 74 2 58 8 -22 9 -23 15 -23 105 0 79 3 95 15 95 9 0 24 -14 33 -31 37 -66 40 -67 39 -11 l-2 52 -117 0 -118 0 0 -52z"/> <path d="M392 1288 c-2 -71 -4 -77 -24 -81 -13 -2 0 -4 27 -4 28 -1 43 1 34 4 -12 3 -19 24 -26 81 l-10 77 -1 -77z"/> <path d="M2966 1179 c-4 -23 -5 -44 -2 -46 2 -2 7 14 11 37 4 23 5 43 2 46 -2 3 -7 -14 -11 -37z"/> <path d="M114 998 c-3 -5 -4 -11 -2 -13 2 -3 90 -5 196 -5 188 -2 220 -7 192 -33 -10 -9 -11 -9 -6 0 3 6 1 15 -5 19 -8 5 -9 3 -4 -6 6 -9 2 -10 -16 -4 -46 15 -64 11 -62 -14 2 -18 -3 -24 -28 -29 -40 -8 -49 -31 -20 -55 13 -10 28 -18 34 -18 6 0 2 7 -9 15 -18 14 -17 14 9 5 15 -5 41 -17 57 -25 17 -9 30 -13 30 -10 0 4 -28 19 -62 35 -37 17 -54 29 -42 30 26 0 82 -18 112 -38 19 -12 20 -17 10 -31 -10 -13 -8 -12 8 2 20 16 34 14 34 -5 0 -5 -5 -6 -12 -2 -7 4 -8 3 -4 -5 6 -9 11 -9 22 0 13 10 9 18 -23 51 -42 44 -101 90 -88 68 5 -9 4 -11 -3 -6 -7 4 -12 14 -12 22 0 30 83 -9 129 -61 35 -41 37 -48 16 -65 -8 -7 -15 -21 -15 -32 0 -16 -3 -17 -22 -7 -23 13 -52 16 -140 18 -32 1 -58 6 -58 11 0 13 86 13 112 -1 11 -6 22 -8 25 -6 3 3 -8 12 -24 20 -40 20 -125 8 -193 -28 -77 -42 -72 -56 28 -79 59 -13 80 -22 73 -29 -6 -6 -11 -20 -11 -30 0 -18 5 -19 56 -14 l57 6 -28 -29 c-37 -38 -30 -65 16 -64 33 1 35 -1 31 -28 -4 -23 -1 -28 17 -28 11 0 36 13 54 30 l34 30 16 -40 c16 -41 43 -53 54 -24 3 8 11 13 17 11 7 -3 20 1 31 9 15 11 16 17 7 26 -9 9 -12 8 -12 -6 0 -10 -6 -16 -12 -14 -9 3 -13 29 -14 77 -1 40 2 69 6 64 9 -9 43 -111 45 -133 2 -28 31 -28 38 0 3 13 10 18 21 14 14 -5 13 -10 -4 -45 -38 -73 -18 -98 35 -44 20 19 32 35 27 35 -4 0 -13 -5 -20 -12 -8 -8 -12 -8 -12 -1 0 12 109 108 115 101 3 -2 -12 -21 -32 -42 -21 -21 -38 -44 -39 -51 -1 -7 -26 -63 -56 -124 -30 -62 -52 -113 -49 -115 13 -8 106 15 158 39 33 15 80 50 119 89 47 47 64 59 64 45 0 -10 8 -27 18 -37 13 -13 17 -29 14 -54 -3 -30 0 -37 17 -43 12 -3 21 -13 21 -21 0 -23 28 -28 54 -10 25 16 25 15 28 -21 3 -40 19 -52 39 -30 8 8 21 12 30 10 11 -3 22 5 32 22 l14 27 12 -30 c12 -30 63 -58 82 -47 4 3 11 -1 16 -8 10 -16 88 -57 108 -57 30 0 46 42 39 104 l-7 60 39 -42 c37 -41 75 -54 89 -32 4 6 16 8 26 5 11 -4 26 -2 33 4 10 9 24 5 57 -14 54 -31 73 -31 93 -3 28 40 20 84 -24 137 -50 59 -51 70 -2 33 38 -31 119 -62 158 -62 12 0 38 -7 57 -15 20 -8 52 -15 71 -15 62 0 70 55 24 163 -20 47 -17 81 4 42 30 -56 195 -182 213 -163 10 9 -23 104 -41 118 -22 19 -17 31 11 24 38 -9 30 9 -17 43 -52 35 -82 48 -168 67 -62 14 -110 48 -110 77 0 16 59 36 127 43 l62 7 -27 -31 c-26 -30 -55 -39 -67 -20 -3 6 -18 9 -33 9 -21 -1 -22 -2 -7 -6 37 -9 43 -26 7 -19 -23 4 -31 2 -26 -5 4 -7 26 -10 59 -6 46 5 54 3 58 -14 6 -21 41 -26 54 -6 5 8 9 2 13 -18 3 -20 12 -31 25 -33 11 -2 30 -8 42 -14 12 -6 29 -8 38 -4 9 3 25 0 35 -6 15 -10 22 -10 32 0 6 6 23 12 36 12 16 0 26 7 29 21 3 11 11 18 18 15 17 -6 29 4 48 43 12 24 14 38 6 52 -8 15 -6 19 7 19 20 0 64 45 64 65 0 8 -9 20 -20 27 -13 8 -18 19 -14 33 3 13 -1 27 -10 34 -10 9 -14 22 -10 37 5 19 1 24 -19 29 -16 4 -24 12 -21 20 3 7 -5 20 -18 29 -21 15 -11 16 149 16 147 0 172 2 177 16 5 14 -15 15 -203 12 l-209 -3 -5 -45 c-7 -61 -26 -100 -48 -100 -13 0 -23 18 -39 65 -12 35 -19 68 -16 73 3 5 -480 9 -1140 9 -668 0 -1147 -4 -1150 -9z m2292 -77 c26 -72 22 -66 51 -75 18 -6 25 -1 42 31 25 49 66 87 85 80 29 -12 20 -27 -46 -81 -29 -23 -45 -43 -41 -52 3 -8 0 -14 -6 -14 -6 0 -11 5 -11 10 0 14 -54 12 -68 -2 -9 -9 -12 -8 -12 4 0 9 5 18 11 20 6 2 -5 27 -25 57 -39 57 -47 95 -19 89 10 -2 25 -28 39 -67z m-1846 7 c16 -29 30 -49 30 -44 0 5 -12 29 -26 53 -22 39 -23 44 -7 41 12 -2 25 -24 40 -67 27 -77 27 -70 7 -67 -26 4 -103 136 -79 136 2 0 18 -24 35 -52z m150 43 c0 -2 -10 -30 -21 -62 -16 -42 -27 -59 -40 -59 -25 0 -32 16 -32 74 0 36 -2 44 -6 26 l-7 -25 -6 27 c-5 26 -5 27 54 25 32 -1 58 -4 58 -6z m80 -9 c0 -10 -13 -39 -30 -65 l-30 -47 33 16 c69 36 148 36 93 1 -40 -27 -124 -57 -140 -51 -12 5 -11 12 6 42 11 20 27 46 34 57 8 11 14 24 14 30 0 5 -12 -9 -26 -33 -14 -24 -28 -41 -31 -38 -3 2 7 25 22 50 15 25 25 46 22 46 -10 0 -58 -91 -52 -99 7 -12 -4 -41 -16 -41 -16 0 -10 31 17 91 24 52 30 59 55 59 21 0 29 -5 29 -18z m63 -4 c8 -28 3 -34 -45 -59 -53 -27 -47 -3 8 29 33 20 35 23 12 18 -23 -5 -28 -3 -28 14 0 29 46 28 53 -2z m1327 17 c0 -3 -22 -39 -49 -79 -102 -150 -270 -266 -440 -302 -86 -18 -238 -17 -326 1 -184 39 -377 180 -475 348 l-22 37 656 0 c361 0 656 -2 656 -5z m150 -6 c0 -7 -10 -9 -24 -5 -35 9 -56 -2 -56 -29 0 -14 -7 -25 -20 -28 -17 -4 -19 -12 -17 -50 2 -34 -2 -48 -15 -56 -18 -11 -25 -51 -10 -51 5 0 8 -10 8 -22 -1 -16 -9 -25 -26 -29 -14 -4 -33 -10 -42 -14 -27 -11 -23 20 8 61 35 45 53 98 54 156 0 75 4 78 76 78 40 0 64 -4 64 -11z m1 -27 c-7 -2 5 -20 28 -41 37 -35 52 -62 34 -60 -19 1 -118 76 -121 91 -2 13 5 16 34 15 20 -1 31 -3 25 -5z m-1452 -41 c-15 -5 -22 6 -14 19 6 9 10 9 16 -1 5 -8 4 -15 -2 -18z m-394 -23 c22 -24 28 -32 14 -20 -14 13 -39 25 -55 28 -32 6 -57 24 -33 24 8 0 21 -6 28 -12 11 -11 13 -10 8 5 -9 24 -6 22 38 -25z m1684 -15 c-5 -25 -11 -49 -14 -51 -7 -7 -6 63 1 82 13 34 21 14 13 -31z m140 12 c65 -33 81 -50 81 -90 0 -80 104 -81 112 -2 3 29 8 34 58 50 55 18 100 12 100 -13 0 -8 -108 -17 -142 -11 -5 0 -8 -12 -8 -27 0 -15 -5 -33 -11 -39 -8 -8 2 -23 36 -54 25 -23 53 -48 62 -54 17 -13 12 -45 -7 -45 -5 0 -31 29 -56 64 -43 60 -49 64 -78 59 -46 -7 -80 23 -79 70 1 29 -3 38 -20 43 -76 23 -127 47 -127 60 0 20 24 17 79 -11z m329 13 c-4 -12 -110 -58 -133 -58 -5 0 12 16 39 35 49 34 102 47 94 23z m-1743 -18 c-3 -5 1 -10 9 -10 41 0 3 -44 -54 -63 l-45 -15 30 -7 c39 -8 78 -27 79 -40 1 -13 -88 -24 -141 -17 -55 6 -59 31 -5 33 l37 2 -40 7 c-22 4 -36 8 -31 9 5 0 3 7 -3 15 -9 11 1 17 54 35 36 11 75 22 88 22 18 1 19 2 4 6 -18 5 -18 5 0 19 22 16 26 17 18 4z m1245 -49 c0 -22 -6 -46 -13 -53 -7 -7 -20 -26 -30 -41 -10 -16 -21 -26 -24 -24 -3 3 2 16 11 29 9 12 16 35 16 51 0 22 26 75 38 77 1 0 2 -18 2 -39z m169 8 c85 -29 65 -46 -23 -19 -36 12 -64 25 -61 30 8 14 12 13 84 -11z m-1620 -13 c57 -44 17 -136 -60 -136 -46 0 -81 66 -63 115 14 37 87 49 123 21z m1791 -11 c27 -33 -8 -73 -53 -61 -47 11 -31 76 19 76 12 0 27 -7 34 -15z m-1576 -6 c-4 -7 -1 -10 7 -7 20 8 72 -16 125 -56 45 -34 46 -36 20 -36 -17 0 -39 11 -56 28 -21 22 -32 26 -45 19 -11 -6 -21 -5 -28 2 -7 7 -3 13 14 21 23 10 23 10 -6 6 -16 -2 -43 -2 -60 2 l-30 6 30 12 c38 16 38 16 29 3z m-579 -9 c3 -6 -4 -10 -17 -11 -22 0 -22 -1 -3 -9 18 -8 18 -9 -5 -10 l-25 -2 25 -7 c36 -10 10 -21 -34 -14 -51 8 -53 19 -9 42 43 23 59 25 68 11z m1950 1 c7 -12 -61 -35 -76 -25 -9 5 -7 11 6 21 22 15 61 17 70 4z m-1799 -12 c39 -7 65 -16 68 -26 6 -14 -3 -15 -66 -10 -40 4 -86 9 -103 11 -16 3 -10 0 15 -7 42 -13 44 -14 23 -25 -12 -7 -30 -12 -40 -11 -16 0 -16 1 2 9 18 8 17 9 -6 9 -35 1 -44 25 -16 45 27 18 43 19 123 5z m1609 -11 c-8 -26 -32 -48 -52 -48 -19 0 -16 11 14 42 32 34 47 36 38 6z m588 8 c29 -22 21 -39 -15 -32 -54 10 -127 31 -134 39 -14 13 130 7 149 -7z m-318 -5 c-6 -5 -17 -11 -25 -14 -8 -2 -3 -3 13 -1 44 6 31 -13 -23 -31 -90 -30 -145 -4 -73 34 38 20 126 30 108 12z m280 -42 l30 -13 -32 -4 c-32 -3 -113 30 -113 47 0 9 62 -7 115 -30z m-77 -13 c43 -27 78 -63 69 -72 -6 -7 -116 76 -116 89 -1 11 7 9 47 -17z m-2012 2 c7 -12 -91 -56 -145 -64 -39 -6 -43 -5 -40 12 6 28 81 62 135 62 24 -1 47 -5 50 -10z m451 -8 c14 -11 33 -20 42 -21 28 -1 -82 -29 -117 -29 -18 0 -47 7 -63 16 -17 8 -33 13 -37 10 -3 -3 13 -14 36 -24 23 -9 42 -20 42 -24 0 -13 -38 -9 -77 7 -40 17 -51 19 -37 6 5 -5 26 -14 47 -21 20 -6 37 -16 37 -21 0 -13 -32 -3 -76 23 -19 11 -32 24 -29 29 3 4 -8 15 -25 24 -43 22 -28 37 20 20 32 -11 53 -12 98 -4 31 6 64 15 72 20 23 13 40 11 67 -11z m1388 8 c22 -10 26 -17 22 -42 l-5 -31 11 28 c11 28 27 37 27 14 0 -23 -50 -115 -66 -121 -25 -10 -28 24 -5 78 25 62 27 80 4 46 -27 -41 -66 -80 -80 -80 -25 0 -13 40 23 80 42 46 36 43 69 28z m-321 -30 c16 -11 26 -16 22 -10 -3 6 -2 13 4 17 6 4 10 -9 10 -34 0 -23 -2 -41 -5 -41 -3 0 -22 7 -43 17 -29 12 -33 17 -18 20 15 4 13 8 -13 24 -17 10 -31 24 -31 30 0 14 38 3 74 -23z m455 -35 c31 -46 41 -93 20 -93 -5 0 -17 17 -25 38 -8 20 -21 49 -29 64 -17 29 -20 52 -6 44 5 -4 23 -27 40 -53z m-1949 39 c0 -28 -103 -112 -137 -112 -36 0 19 65 86 100 40 21 51 24 51 12z m1930 -119 c0 -22 -5 -33 -14 -33 -18 0 -23 17 -30 100 l-6 65 25 -50 c14 -27 25 -65 25 -82z m-1745 96 c6 1 7 -1 3 -5 -4 -4 6 -24 23 -46 29 -35 33 -68 10 -68 -12 0 -51 49 -51 64 0 6 12 -2 26 -19 25 -30 25 -30 -2 13 -27 43 -38 53 -28 27 11 -27 -5 -16 -21 15 -20 39 -19 43 8 28 12 -7 27 -11 32 -9z m1243 -2 c24 -19 11 -27 -43 -27 -61 0 -68 7 -27 31 27 16 46 15 70 -4z m-1414 -19 c-9 -18 -30 -53 -46 -78 -22 -33 -24 -38 -6 -19 13 14 28 35 35 45 9 14 12 15 12 4 1 -23 -41 -70 -66 -75 -17 -3 -23 1 -23 13 0 22 29 64 39 58 4 -3 8 1 8 8 0 15 44 76 55 76 5 0 1 -15 -8 -32z m136 -33 c23 -47 29 -69 22 -81 -7 -13 -14 -2 -32 52 -13 38 -25 75 -28 82 -2 6 -2 12 1 12 3 0 20 -29 37 -65z m398 17 c3 -45 -3 -52 -25 -24 -12 15 -13 14 -7 -10 7 -32 -2 -35 -34 -12 -30 20 -26 58 6 62 12 2 22 10 22 18 0 9 7 14 18 12 12 -2 18 -15 20 -46z m-473 26 c11 11 0 -147 -12 -159 -7 -7 -16 3 -27 31 -19 47 -20 78 -6 115 8 21 13 25 24 16 7 -6 16 -7 21 -3z m505 -9 c0 -5 5 -7 10 -4 16 10 23 -21 10 -44 -18 -35 -37 -26 -37 19 0 22 4 40 8 40 5 0 9 -5 9 -11z m-235 -52 c-33 -28 -79 -70 -102 -93 -52 -50 -55 -44 -10 20 36 50 83 89 132 112 46 21 44 17 -20 -39z m93 26 c0 -29 -39 -93 -137 -222 -83 -109 -89 -120 -52 -86 17 16 59 69 92 117 33 49 63 88 66 88 5 0 -18 -42 -52 -93 -9 -15 -15 -27 -11 -27 3 0 26 30 51 67 33 49 45 62 45 46 0 -21 35 -50 53 -45 20 6 1 -22 -51 -75 -33 -32 -85 -71 -116 -86 -65 -32 -85 -31 -32 2 34 22 83 72 122 125 13 18 26 26 33 21 9 -5 5 -16 -16 -39 -26 -29 -25 -29 9 3 27 25 34 37 25 43 -25 16 -46 7 -67 -27 -22 -36 -137 -145 -152 -145 -5 0 -7 -4 -4 -8 2 -4 -4 -8 -14 -8 -12 0 -17 7 -15 21 4 31 72 171 107 223 28 41 106 132 113 132 1 0 3 -12 3 -27z m868 -18 c-4 -11 -12 -15 -22 -11 -9 3 -25 6 -37 6 -18 1 -15 4 13 19 37 19 57 13 46 -14z m570 -20 c-7 -38 -22 -53 -38 -37 -6 6 -2 24 13 53 24 47 35 40 25 -16z m-1216 20 c17 -21 -4 -45 -38 -45 -20 0 -23 -3 -14 -12 17 -17 15 -38 -4 -38 -14 0 -14 -3 -4 -15 17 -20 4 -32 -19 -18 -15 10 -18 9 -17 -5 1 -11 -6 -17 -19 -17 -14 0 -21 8 -25 30 -4 20 -8 26 -13 18 -11 -18 -44 -16 -51 3 -8 22 11 54 33 54 10 0 21 -9 24 -20 6 -24 39 -27 57 -5 7 8 9 15 4 15 -4 0 7 16 26 35 38 40 43 41 60 20z m856 0 c28 -8 60 -25 71 -37 25 -27 37 -64 25 -72 -5 -3 2 -27 15 -54 13 -27 25 -69 26 -93 l2 -44 -39 -3 c-32 -3 -38 -1 -32 13 4 11 -7 32 -30 60 -20 24 -37 51 -38 59 -1 9 -15 30 -32 47 -20 22 -23 28 -9 21 11 -6 40 -32 65 -58 25 -27 35 -40 22 -30 -12 11 -25 17 -28 13 -3 -3 7 -13 23 -23 15 -9 38 -29 51 -43 l24 -26 -15 31 c-28 55 -106 132 -175 170 -37 21 -68 41 -70 46 -2 4 -14 8 -28 8 -17 0 -22 4 -18 15 8 20 123 20 190 0z m-1246 -17 c0 -13 -23 -5 -28 10 -2 7 2 10 12 6 9 -3 16 -11 16 -16z m-364 -13 c-11 -8 -27 -15 -35 -15 -9 1 -2 7 14 15 39 18 44 18 21 0z m824 7 c0 -5 10 -8 23 -8 18 1 21 -4 18 -24 -5 -40 -24 -43 -43 -7 -20 37 -22 47 -8 47 6 0 10 -4 10 -8z m-260 -12 c0 -5 -7 -10 -15 -10 -8 0 -15 5 -15 10 0 6 7 10 15 10 8 0 15 -4 15 -10z m90 -10 c0 -11 -7 -20 -15 -20 -15 0 -21 21 -8 33 12 13 23 7 23 -13z m157 -15 c9 -19 13 -38 9 -42 -10 -10 -55 49 -49 64 9 22 23 14 40 -22z m640 5 c60 -26 99 -64 119 -116 13 -33 14 -35 10 -9 -4 28 -3 28 10 10 17 -23 18 -62 2 -68 -10 -3 -9 -8 2 -22 14 -17 13 -18 -24 -12 -21 3 -46 13 -56 22 -10 9 -25 13 -36 9 -13 -4 -15 -3 -7 3 9 6 4 14 -20 28 -33 19 -119 93 -114 99 1 1 -4 10 -12 19 -8 10 -9 17 -3 17 6 0 14 -4 17 -10 10 -16 168 -110 185 -110 8 1 -7 12 -33 26 -27 14 -47 28 -44 30 3 3 19 -2 37 -11 18 -9 34 -15 36 -12 5 4 -16 15 -109 56 -39 17 -66 35 -62 41 3 5 0 7 -8 4 -8 -3 -18 -1 -22 5 -3 6 -11 11 -17 11 -7 0 -6 -6 2 -15 15 -18 0 -20 -20 -2 -8 6 3 -9 24 -35 40 -52 36 -66 -6 -20 -29 31 -56 78 -39 68 6 -4 11 -2 11 4 0 6 5 8 10 5 6 -3 10 -2 10 2 0 16 106 5 157 -17z m-524 10 c6 0 0 -11 -13 -25 -34 -36 -52 -33 -38 6 7 20 15 28 25 25 8 -3 20 -6 26 -6z m317 -9 c18 -34 11 -52 -26 -67 -32 -14 -38 -13 -60 1 -39 25 -30 69 16 78 49 9 59 7 70 -12z m-270 -4 c0 -16 -57 -60 -72 -55 -12 4 45 68 61 68 6 0 11 -6 11 -13z m82 1 c33 2 41 -2 58 -31 11 -17 20 -35 20 -39 0 -14 -42 -30 -58 -22 -9 4 -25 8 -34 9 -10 1 -27 10 -38 20 -28 26 -26 86 3 68 6 -3 28 -5 49 -5z m739 -4 c53 -16 124 -52 116 -60 -2 -2 -28 7 -58 20 -30 13 -67 27 -84 30 l-30 6 35 -27 c19 -16 59 -50 88 -77 28 -27 52 -44 52 -38 0 6 -28 36 -62 67 -62 56 -62 56 -21 36 23 -11 53 -35 66 -53 27 -37 42 -72 27 -63 -14 9 -12 -9 2 -23 24 -24 -6 -11 -52 23 -58 43 -152 143 -145 155 3 5 -1 11 -7 13 -31 13 22 6 73 -9z m-1016 -24 c24 -25 26 -30 12 -36 -9 -3 -14 -10 -11 -15 6 -10 -2 -11 -33 -3 -13 4 -23 13 -23 21 0 11 7 14 21 10 l21 -6 -21 20 c-11 11 -21 24 -21 29 0 19 27 9 55 -20z m179 -37 c-34 -25 -51 -14 -19 14 20 18 30 22 33 13 3 -7 -3 -19 -14 -27z m-70 2 c13 -10 17 -23 14 -49 -2 -20 0 -36 6 -36 5 0 31 -14 57 -30 50 -33 80 -83 61 -102 -14 -14 -45 9 -38 28 3 7 -18 33 -46 58 -43 38 -55 44 -83 39 -26 -4 -36 -1 -49 18 -21 31 -20 45 4 69 23 23 47 25 74 5z m409 -19 c3 -8 -5 -18 -20 -25 -22 -10 -25 -9 -19 4 3 9 6 21 6 26 0 14 27 11 33 -5z m-268 -17 l50 -14 -40 -6 -40 -6 38 -2 c34 -1 48 -13 29 -25 -11 -7 -142 36 -142 46 0 4 9 8 21 8 11 0 17 4 14 10 -3 5 0 8 7 6 7 -2 36 -10 63 -17z m215 -13 c0 -42 -33 -59 -55 -29 -20 25 -19 30 13 47 39 22 42 20 42 -18z m-467 5 c8 -8 -10 -11 -68 -13 -44 -1 -63 -3 -42 -5 39 -4 48 -16 21 -27 -25 -9 -44 -7 -57 7 -21 22 -18 37 7 37 14 0 28 5 32 11 8 14 91 6 107 -10z m387 3 c0 -14 -3 -14 -15 -4 -8 7 -15 14 -15 16 0 2 7 4 15 4 8 0 15 -7 15 -16z m198 -6 c22 -22 14 -48 -14 -48 -15 0 -23 4 -18 11 3 6 -8 4 -24 -5 -39 -20 -52 -20 -52 -1 0 17 56 55 81 55 8 0 20 -5 27 -12z m-197 -24 l24 -27 -25 6 c-14 4 -30 7 -37 7 -7 0 -17 9 -23 20 -9 17 -8 20 13 20 13 0 34 -12 48 -26z m-371 -3 c0 -14 -112 -111 -127 -111 -16 0 -17 34 -2 62 18 33 129 75 129 49z m218 -21 c23 -11 42 -26 42 -35 0 -12 -15 -8 -70 20 -38 19 -70 38 -70 41 0 9 48 -4 98 -26z m-200 -57 c3 -95 -28 -162 -44 -98 -8 33 2 99 22 136 8 16 16 29 17 29 2 0 4 -30 5 -67z m292 35 c-1 -18 1 -71 5 -118 4 -49 2 -91 -3 -99 -16 -22 -59 -6 -67 26 -6 21 -9 24 -12 10 -5 -21 -12 -21 -35 0 -20 18 -25 77 -6 71 7 -3 15 -15 19 -29 6 -22 7 -22 8 -3 1 13 9 24 22 27 13 3 19 1 16 -6 -5 -13 22 -72 29 -65 5 5 -28 105 -45 137 -11 20 -10 20 14 9 14 -6 28 -23 31 -37 9 -42 12 -47 13 -21 0 14 -6 42 -14 64 -10 30 -11 42 -2 52 19 22 28 16 27 -18z m562 -28 c5 0 8 -4 8 -10 0 -17 -26 -11 -45 10 -11 12 -15 26 -11 37 6 16 9 15 24 -10 9 -15 20 -27 24 -27z m-812 -22 c0 -35 -5 -70 -10 -78 -7 -10 -10 9 -10 63 0 45 4 77 10 77 6 0 10 -27 10 -62z m58 -62 l-4 -41 -17 38 c-10 20 -20 59 -23 85 l-6 47 27 -44 c19 -33 25 -55 23 -85z m13 97 c43 -39 56 -73 32 -91 -13 -10 -14 -16 -5 -19 14 -6 16 -29 2 -38 -6 -3 -15 6 -20 21 -8 20 -8 29 1 35 9 5 3 23 -20 63 -17 31 -29 56 -26 56 3 0 19 -12 36 -27z m274 17 c3 -6 -1 -13 -11 -17 -15 -6 -14 -7 5 -15 12 -4 19 -12 16 -18 -3 -5 0 -10 9 -10 8 0 22 -3 30 -6 11 -4 15 -2 11 8 -4 9 3 19 17 26 13 6 17 11 11 11 -7 1 -13 6 -13 11 0 17 76 12 91 -6 18 -21 0 -48 -35 -52 -22 -3 -25 -7 -20 -29 8 -32 -14 -48 -37 -27 -15 13 -17 13 -22 -6 -3 -13 -13 -20 -30 -20 -28 0 -41 22 -25 38 8 8 3 11 -18 9 -21 -1 -29 3 -32 18 -2 11 -11 28 -19 37 -25 28 -8 58 32 58 19 0 37 -5 40 -10z m55 -9 c0 -24 -18 -37 -32 -23 -8 8 -7 16 2 27 17 21 30 19 30 -4z m200 -98 c0 -67 -16 -76 -80 -43 -43 22 -49 39 -24 65 16 15 19 15 42 -12 l24 -28 -17 29 c-9 15 -14 37 -11 49 3 11 0 30 -5 41 -6 12 8 1 30 -24 29 -32 40 -54 41 -77z m-707 40 c-19 -41 -53 -57 -53 -27 0 21 63 90 68 74 2 -5 -5 -27 -15 -47z"/> <path d="M640 921 c0 -28 5 -53 10 -56 6 -4 10 15 10 49 0 31 -4 56 -10 56 -5 0 -10 -22 -10 -49z"/> <path d="M620 775 c-15 -18 -5 -35 20 -35 25 0 33 28 11 40 -14 7 -22 6 -31 -5z"/> <path d="M2010 581 c19 -4 46 -11 60 -15 20 -7 22 -6 13 4 -6 7 -33 14 -60 16 -42 3 -44 2 -13 -5z"/> <path d="M2018 556 c18 -9 47 -25 63 -37 17 -12 32 -19 35 -17 8 8 -70 56 -101 63 l-30 6 33 -15z"/> <path d="M1840 558 c14 -6 47 -21 74 -35 31 -15 44 -18 37 -9 -7 9 -37 24 -67 36 -57 21 -88 27 -44 8z"/> <path d="M1650 522 c0 -5 6 -14 13 -21 14 -11 37 3 37 24 0 5 -4 4 -9 -4 -8 -12 -12 -12 -25 -2 -9 8 -16 9 -16 3z"/> <path d="M1495 530 c-3 -5 -1 -18 4 -27 9 -16 10 -14 11 10 0 28 -5 34 -15 17z"/> <path d="M1529 523 c-13 -16 -12 -17 3 -5 19 15 31 2 21 -24 -4 -12 -3 -15 5 -10 16 10 15 31 -2 45 -10 9 -17 7 -27 -6z"/> <path d="M1297 473 c-10 -9 -8 -51 2 -57 5 -4 7 4 4 15 -4 15 0 27 12 35 15 11 16 14 4 14 -9 0 -19 -3 -22 -7z"/> <path d="M1357 437 c-3 -9 -13 -17 -22 -17 -8 0 -15 -4 -15 -10 0 -15 26 -12 40 5 6 8 10 20 8 27 -3 8 -7 6 -11 -5z"/> <path d="M1191 368 c-22 -21 -23 -22 -17 -3 5 16 3 15 -14 -5 -11 -14 -19 -29 -19 -35 0 -5 3 -4 6 3 2 6 8 10 12 7 5 -2 21 9 36 25 34 35 30 40 -4 8z"/> <path d="M1888 290 c9 -21 18 -35 20 -30 3 9 -25 70 -33 70 -2 0 4 -18 13 -40z"/> <path d="M2440 991 c5 -11 14 -44 18 -73 l9 -53 4 73 c4 70 3 72 -19 72 -19 0 -21 -3 -12 -19z"/> <path d="M91 958 c-1 -12 31 -89 35 -85 3 2 -4 24 -15 48 -11 24 -20 41 -20 37z"/> <path d="M263 944 c-3 -8 -12 -13 -20 -9 -9 3 -28 -7 -46 -25 l-31 -31 29 -23 c28 -22 31 -23 48 -9 9 9 15 19 12 21 -3 3 -11 0 -17 -6 -17 -17 -31 -15 -25 2 4 9 -1 17 -11 19 -14 4 -13 6 6 12 12 4 22 13 22 20 0 10 5 11 24 2 13 -6 22 -17 19 -24 -11 -28 10 -33 33 -8 19 21 22 30 14 40 -9 11 -4 15 27 18 36 3 35 4 -9 5 -47 2 -64 -10 -31 -22 12 -5 13 -10 5 -18 -16 -16 -45 10 -39 34 6 22 -1 24 -10 2z"/> <path d="M2744 947 c4 -13 0 -20 -14 -24 -11 -3 -20 -9 -20 -14 0 -5 -8 -9 -17 -9 -14 0 -12 4 7 25 l23 25 -49 -2 c-37 -1 -41 -2 -16 -5 27 -4 31 -7 22 -18 -16 -19 -3 -38 21 -32 14 4 19 0 19 -13 0 -22 4 -25 45 -34 18 -4 25 -3 17 2 -7 5 -12 15 -10 22 2 7 -3 15 -10 17 -7 3 -11 0 -10 -5 2 -6 -1 -12 -7 -13 -5 -2 -11 6 -13 18 -3 17 3 26 23 33 35 13 38 13 32 -4 -3 -8 2 -16 14 -19 10 -3 19 -10 19 -16 0 -6 -7 -8 -15 -5 -8 4 -15 1 -15 -5 0 -13 36 -15 44 -3 8 13 -45 74 -60 68 -7 -3 -18 3 -24 12 -11 16 -11 15 -6 -1z"/> <path d="M2889 924 c-5 -15 -8 -29 -5 -31 2 -2 8 10 14 26 13 38 5 41 -9 5z"/> <path d="M2726 805 c-3 -8 -3 -21 0 -29 6 -17 54 -51 54 -39 0 5 4 2 8 -4 6 -9 14 -3 27 20 10 17 15 29 11 26 -4 -4 -19 4 -33 17 -29 27 -58 31 -67 9z m55 -17 c11 -11 19 -28 19 -37 0 -13 -2 -13 -9 -2 -7 11 -9 11 -14 0 -4 -10 -6 -9 -6 4 -1 9 -7 16 -13 15 -7 -2 -14 7 -16 20 -4 28 15 29 39 0z"/> <path d="M2762 683 c-30 -44 -36 -57 -25 -50 12 7 55 77 48 77 -2 0 -12 -12 -23 -27z"/> <path d="M230 684 c0 -12 97 -144 106 -144 3 0 -5 14 -18 31 -13 17 -38 52 -55 77 -18 26 -33 42 -33 36z"/> <path d="M2704 598 c-31 -36 -47 -58 -41 -58 3 0 20 18 37 40 34 43 36 55 4 18z"/> <path d="M405 462 c39 -41 93 -92 120 -115 57 -46 48 -37 -90 93 -85 80 -89 83 -30 22z"/> <path d="M2565 438 l-90 -93 93 90 c85 83 97 95 89 95 -1 0 -43 -42 -92 -92z"/> <path d="M650 446 c-11 -31 -4 -59 21 -75 17 -10 25 -9 45 4 25 16 26 35 6 73 -17 31 -60 30 -72 -2z m67 -33 c2 -23 -18 -36 -41 -27 -17 7 -14 53 4 64 17 10 35 -8 37 -37z"/> <path d="M639 262 c14 -11 38 -27 55 -37 l31 -17 -24 20 c-14 11 -38 27 -55 37 l-31 17 24 -20z"/> <path d="M2335 254 c-51 -34 -69 -52 -29 -29 35 20 82 54 74 55 -3 0 -23 -12 -45 -26z"/> <path d="M781 176 c10 -9 69 -36 69 -32 0 6 -55 36 -66 36 -4 0 -5 -2 -3 -4z"/> <path d="M2178 164 c-39 -21 -35 -28 5 -8 37 19 44 24 31 24 -5 -1 -21 -8 -36 -16z"/> <path d="M2037 103 c-37 -14 -66 -28 -63 -30 4 -4 136 44 145 52 9 10 -15 3 -82 -22z"/> <path d="M910 117 c0 -7 112 -49 117 -43 2 2 -15 11 -39 19 -24 8 -51 18 -60 22 -10 4 -18 5 -18 2z"/> <path d="M1170 31 c36 -11 119 -22 95 -12 -11 5 -42 11 -70 14 -31 4 -40 3 -25 -2z"/> <path d="M1780 30 c-34 -7 -34 -7 -5 -8 17 0 41 4 55 8 33 11 0 11 -50 0z"/> <path d="M1418 3 c45 -2 119 -2 165 0 45 1 8 3 -83 3 -91 0 -128 -2 -82 -3z"/> </g> </svg> 