<svg width="145" height="138" xmlns="http://www.w3.org/2000/svg" xmlns:xlink="http://www.w3.org/1999/xlink" xml:space="preserve" overflow="hidden"><defs><linearGradient x1="2562.5" y1="2283" x2="2562.5" y2="2145" gradientUnits="userSpaceOnUse" spreadMethod="reflect" id="fill0"><stop offset="0" stop-color="#46B5FE" stop-opacity="0.760784"/><stop offset="0.21" stop-color="#46B5FE" stop-opacity="0.760784"/><stop offset="0.54" stop-color="#2FC9FE" stop-opacity="0.94902"/><stop offset="1" stop-color="#06EDFE" stop-opacity="0.568627"/></linearGradient></defs><g transform="translate(-2490 -2145)"><path d="M2490 2214C2490 2175.89 2522.46 2145 2562.5 2145 2602.54 2145 2635 2175.89 2635 2214 2635 2252.11 2602.54 2283 2562.5 2283 2522.46 2283 2490 2252.11 2490 2214Z" fill="url(#fill0)" fill-rule="evenodd"/><g><g><g><path d="M45.6344 38.6249 62.2287 38.6249C63.3291 38.6249 64.3841 38.1727 65.1621 37.368 65.9401 36.5632 66.3775 35.4714 66.3775 34.3333 66.3775 33.195 65.9401 32.1035 65.1621 31.2986 64.3841 30.4938 63.3291 30.0416 62.2287 30.0416L53.9317 30.0416 53.9317 25.7499C53.9317 24.6117 53.4947 23.5201 52.7163 22.7153 51.9383 21.9105 50.8833 21.4583 49.7829 21.4583 48.6828 21.4583 47.6274 21.9105 46.8494 22.7153 46.0715 23.5201 45.6344 24.6117 45.6344 25.7499L45.6344 30.0416C42.3336 30.0416 39.1677 31.3981 36.8337 33.8126 34.4998 36.2271 33.1886 39.5018 33.1886 42.9166 33.1886 46.3314 34.4998 49.6061 36.8337 52.0207 39.1677 54.435 42.3336 55.7915 45.6344 55.7915L53.9317 55.7915C55.0317 55.7915 56.0872 56.2437 56.8651 57.0485 57.6431 57.8533 58.0802 58.9451 58.0802 60.0832 58.0802 61.2213 57.6431 62.3131 56.8651 63.1179 56.0872 63.9227 55.0317 64.3749 53.9317 64.3749L37.3371 64.3749C36.237 64.3749 35.1816 64.827 34.4036 65.6318 33.6256 66.4366 33.1886 67.5284 33.1886 68.6665 33.1886 69.8047 33.6256 70.8965 34.4036 71.7012 35.1816 72.506 36.237 72.9582 37.3371 72.9582L45.6344 72.9582 45.6344 77.2498C45.6344 78.388 46.0715 79.4798 46.8494 80.2845 47.6274 81.0893 48.6828 81.5415 49.7829 81.5415 50.8833 81.5415 51.9383 81.0893 52.7163 80.2845 53.4947 79.4798 53.9317 78.388 53.9317 77.2498L53.9317 72.9582C57.2325 72.9582 60.398 71.6017 62.732 69.1873 65.066 66.7727 66.3775 63.498 66.3775 60.0832 66.3775 56.6684 65.066 53.3937 62.732 50.979 60.398 48.5647 57.2325 47.2082 53.9317 47.2082L45.6344 47.2082C44.534 47.2082 43.479 46.7561 42.701 45.9513 41.923 45.1465 41.4859 44.0547 41.4859 42.9166 41.4859 41.7784 41.923 40.6866 42.701 39.8819 43.479 39.0771 44.534 38.6249 45.6344 38.6249ZM49.7829 4.29166C40.7574 4.29166 31.9343 7.06036 24.4297 12.2477 16.9252 17.435 11.076 24.8079 7.62209 33.4341 4.16809 42.0603 3.26438 51.5524 5.02519 60.7098 6.78604 69.8671 11.1323 78.2788 17.5144 84.8811 23.8965 91.4834 32.0278 95.9793 40.8799 97.801 49.7324 99.6224 58.908 98.6875 67.2465 95.1145 75.5854 91.5414 82.7122 85.4908 87.7266 77.7274 92.741 69.964 95.4176 60.8368 95.4176 51.4999 95.4176 38.9796 90.6096 26.9719 82.0517 18.1186 73.4934 9.26538 61.886 4.29166 49.7829 4.29166ZM49.7829 90.1248C42.3985 90.1248 35.1796 87.8595 29.0394 83.6152 22.8993 79.3713 18.1137 73.3389 15.2877 66.281 12.4617 59.2232 11.7223 51.457 13.163 43.9644 14.6037 36.4719 18.1597 29.5897 23.3814 24.188 28.6031 18.7862 35.2561 15.1075 42.4987 13.6172 49.7417 12.1268 57.249 12.8917 64.0714 15.8151 70.8941 18.7385 76.7252 23.6892 80.828 30.041 84.9305 36.3929 87.1203 43.8607 87.1203 51.4999 87.1203 61.7439 83.1867 71.5684 76.1845 78.812 69.1825 86.0553 59.6856 90.1248 49.7829 90.1248Z" fill="#FFFDFD" transform="matrix(1.00435 0 0 1 2512 2161)"/></g></g></g></g></svg>