<svg width="145" height="138" xmlns="http://www.w3.org/2000/svg" xmlns:xlink="http://www.w3.org/1999/xlink" xml:space="preserve" overflow="hidden"><defs><linearGradient x1="2562.5" y1="2283" x2="2562.5" y2="2145" gradientUnits="userSpaceOnUse" spreadMethod="reflect" id="fill0"><stop offset="0" stop-color="#46B5FE" stop-opacity="0.760784"/><stop offset="0.21" stop-color="#46B5FE" stop-opacity="0.760784"/><stop offset="0.54" stop-color="#2FC9FE" stop-opacity="0.94902"/><stop offset="1" stop-color="#06EDFE" stop-opacity="0.568627"/></linearGradient></defs><g transform="translate(-2490 -2145)"><path d="M2490 2214C2490 2175.89 2522.46 2145 2562.5 2145 2602.54 2145 2635 2175.89 2635 2214 2635 2252.11 2602.54 2283 2562.5 2283 2522.46 2283 2490 2252.11 2490 2214Z" fill="url(#fill0)" fill-rule="evenodd"/><g><g><g><path d="M87.5004 56.3217 83.3335 56.3217 83.3335 12.069C83.3335 11.002 82.8945 9.97876 82.1131 9.22431 81.3318 8.46986 80.2721 8.046 79.1669 8.046L20.8336 8.046C19.7286 8.046 18.6687 8.46986 17.8874 9.22431 17.1059 9.97876 16.6669 11.002 16.6669 12.069L16.6669 56.3217 12.5003 56.3217C11.3952 56.3217 10.3354 56.7459 9.554 57.5004 8.77259 58.2545 8.33362 59.278 8.33362 60.3448 8.33362 61.4117 8.77259 62.4352 9.554 63.1897 10.3354 63.9442 11.3952 64.368 12.5003 64.368L45.8335 64.368 45.8335 68.9942 26.8753 81.0631C26.0975 81.528 25.4998 82.2273 25.1743 83.0524 24.8489 83.878 24.8138 84.7838 25.0744 85.6304 25.3351 86.4769 25.877 87.2173 26.6167 87.7369 27.3563 88.2566 28.2525 88.5266 29.167 88.5059 29.9861 88.5149 30.7876 88.2755 31.4586 87.8218L45.8335 78.6493 45.8335 84.4828C45.8335 85.5497 46.2728 86.5731 47.0542 87.3276 47.8355 88.0821 48.8952 88.5059 50.0004 88.5059 51.1055 88.5059 52.1652 88.0821 52.9466 87.3276 53.728 86.5731 54.1669 85.5497 54.1669 84.4828L54.1669 78.6493 68.5421 87.8218C69.2131 88.2755 70.0145 88.5149 70.8335 88.5059 71.7238 88.4993 72.5883 88.2173 73.3007 87.7018 74.0131 87.1862 74.5355 86.4642 74.7917 85.6407 75.048 84.8176 75.0245 83.9369 74.7245 83.1276 74.4249 82.3183 73.8642 81.6231 73.1252 81.1438L54.1669 69.0749 54.1669 64.368 87.5004 64.368C88.6055 64.368 89.6652 63.9442 90.4466 63.1897 91.228 62.4352 91.6669 61.4117 91.6669 60.3448 91.6669 59.278 91.228 58.2545 90.4466 57.5004 89.6652 56.7459 88.6055 56.3217 87.5004 56.3217ZM75.0004 56.3217 25.0003 56.3217 25.0003 16.092 75.0004 16.092 75.0004 56.3217ZM37.5004 48.2759C38.1866 48.2724 38.8614 48.1055 39.4648 47.7897 40.0679 47.4738 40.5811 47.019 40.9586 46.4655L46.5004 38.4197 51.2086 43.0059C51.6459 43.4304 52.1755 43.7555 52.7597 43.9576 53.3435 44.1593 53.9666 44.2328 54.5835 44.1724 55.198 44.1073 55.7897 43.911 56.3155 43.5979 56.8417 43.2848 57.289 42.8628 57.6252 42.3621L65.9586 30.2931C66.4493 29.4098 66.5811 28.3814 66.3276 27.4094 66.0742 26.4374 65.4538 25.5917 64.5883 25.038 63.7231 24.4843 62.6748 24.2625 61.6486 24.416 60.6228 24.5695 59.6931 25.0872 59.0421 25.8679L53.5004 33.9138 48.7921 29.3276C48.3548 28.9029 47.8248 28.5778 47.2411 28.3759 46.6573 28.1741 46.0342 28.1007 45.4169 28.161 44.8028 28.226 44.2111 28.4223 43.6848 28.7354 43.159 29.0485 42.7114 29.4706 42.3752 29.9713L34.042 42.0404C33.4389 42.9273 33.2231 44.0083 33.4417 45.0479 33.6602 46.0879 34.2952 47.0021 35.2086 47.5921 35.8797 48.0459 36.681 48.2848 37.5004 48.2759Z" fill="#FFFFFF" transform="matrix(1 0 0 1.00464 2512 2164)"/></g></g></g></g></svg>